<svg id="_x31_px" enable-background="new 0 0 24 24" height="512" viewBox="0 0 24 24" width="512" xmlns="http://www.w3.org/2000/svg"><path d="m19.5 24h-15c-1.379 0-2.5-1.122-2.5-2.5v-19c0-1.378 1.121-2.5 2.5-2.5h15c1.379 0 2.5 1.122 2.5 2.5v19c0 1.378-1.121 2.5-2.5 2.5zm-15-23c-.827 0-1.5.673-1.5 1.5v19c0 .827.673 1.5 1.5 1.5h15c.827 0 1.5-.673 1.5-1.5v-19c0-.827-.673-1.5-1.5-1.5z"/><path d="m8.5 21c-.276 0-.5-.224-.5-.5v-3.5c0-.551-.448-1-1-1s-1 .449-1 1v3.5c0 .276-.224.5-.5.5s-.5-.224-.5-.5v-3.5c0-1.103.897-2 2-2s2 .897 2 2v3.5c0 .276-.224.5-.5.5z"/><path d="m8.25 19h-2.5c-.276 0-.5-.224-.5-.5s.224-.5.5-.5h2.5c.276 0 .5.224.5.5s-.224.5-.5.5z"/><path d="m10.5 21c-.276 0-.5-.224-.5-.5v-5c0-.276.224-.5.5-.5h1.5c1.103 0 2 .897 2 2s-.897 2-2 2h-1v1.5c0 .276-.224.5-.5.5zm.5-3h1c.552 0 1-.449 1-1s-.448-1-1-1h-1z"/><path d="m15.5 21c-.276 0-.5-.224-.5-.5v-5c0-.276.224-.5.5-.5s.5.224.5.5v5c0 .276-.224.5-.5.5z"/><path d="m18.5 21c-.113 0-.227-.038-.32-.116l-3-2.5c-.115-.095-.18-.236-.18-.384s.065-.289.18-.384l3-2.5c.211-.176.526-.149.704.064.177.212.148.528-.063.705l-2.54 2.115 2.539 2.116c.212.177.24.492.063.705-.098.118-.24.179-.383.179z"/></svg>